:SAMPLES-PER-SECOND 30
:FULLY-SPECIFIED
:DEGREES
860
root  -11.258 39.1027 -22.2226 -170.488 -73.6002 162.079
RightUpLeg  17.4781 -10.826 -12.796
RightLeg  24.3797 3.69065 1.59991
RightFoot  -13.6641 0.25189 17.6943
RightToes  -2.21189e-009 0 -3.6325e-017
Spine  5.34997 0.434813 0.858977
Spine1  8.03556 2.77002 -11.1357
HEad  -21.366 -1.14938 -9.76012
LeftShoulder1  -0.145973 3.89779 -30.924
LeftArm  -7.17585 11.95 -38.5768
LeftForeArm  25.5175 -7.05155 -6.86363
LeftHand  -0.046012 6.49071 -1.20997
RightShoulder  -0.467051 -4.88542 26.928
RightArm  10.4478 -2.51387 53.9278
RightForeArm  14.3105 8.59843 6.26971
RightHand  -0.104691 2.28744 -1.76898
LeftUpLeg  -7.55977 3.63653 -7.47433
LeftLeg  9.69355 15.7914 -0.0492796
LeftFoot  3.11079 -1.15763 8.95169
LeftToes  -4.03379e-008 1.61488e-010 -5.81581e-011
861
root  -12.0914 39.051 -22.2974 -168.83 -73.7578 159.808
RightUpLeg  14.0806 -9.01099 -13.6346
RightLeg  33.2946 3.08712 1.95354
RightFoot  -9.33911 -0.420212 21.1125
RightToes  -2.21189e-009 0 -3.6325e-017
Spine  6.0206 0.57606 -0.254979
Spine1  7.89878 2.69584 -11.4635
HEad  -20.7842 -0.242095 -10.2213
LeftShoulder1  -0.130057 3.85741 -30.6692
LeftArm  -7.23601 11.0469 -39.0572
LeftForeArm  25.5734 -7.15174 -6.85552
LeftHand  -0.0363203 6.01463 -0.861647
RightShoulder  -0.42141 -4.75865 26.6471
RightArm  12.1144 -3.31699 54.3371
RightForeArm  14.7559 9.37288 6.69934
RightHand  -0.086088 1.63267 -1.57829
LeftUpLeg  -6.48535 4.17383 -8.19118
LeftLeg  11.5481 15.2024 0.13679
LeftFoot  0.976522 -0.973308 8.94971
LeftToes  -4.03379e-008 1.61488e-010 -5.81581e-011
862
root  -12.8866 39.0197 -22.3372 -166.832 -73.7009 157.033
RightUpLeg  9.39657 -7.09526 -14.6241
RightLeg  43.2945 2.96024 2.70031
RightFoot  -1.41434 -1.51229 17.7299
RightToes  -2.21189e-009 0 -3.6325e-017
Spine  6.60479 0.672362 -1.61526
Spine1  8.19123 2.57526 -11.18
HEad  -20.2916 1.02578 -10.5496
LeftShoulder1  -0.140905 3.88412 -30.8379
LeftArm  -6.5795 9.64201 -39.4444
LeftForeArm  25.2298 -7.82321 -7.19435
LeftHand  -0.01789 4.88372 -0.333176
RightShoulder  -0.365242 -4.59717 26.3513
RightArm  13.4225 -3.06667 54.4205
RightForeArm  15.2599 10.2842 6.84323
RightHand  -0.07551 2.02873 -1.35746
LeftUpLeg  -4.84147 4.45705 -9.119
LeftLeg  12.3665 15.1402 0.135025
LeftFoot  -0.671531 -0.851638 9.13712
LeftToes  -4.03379e-008 1.61488e-010 -5.81581e-011
863
root  -13.6132 38.9489 -22.3895 -164.835 -73.7196 154.016
RightUpLeg  4.94056 -5.15995 -15.3719
RightLeg  51.8519 2.81237 3.46998
RightFoot  6.68698 -2.0763 13.1276
RightToes  -2.21189e-009 0 -3.6325e-017
Spine  7.43626 0.698634 -3.70474
Spine1  8.59351 2.08542 -10.0824
HEad  -19.0358 1.10819 -11.2354
LeftShoulder1  -0.219808 4.08976 -31.4025
LeftArm  -4.98469 7.27857 -39.4553
LeftForeArm  24.4276 -8.1947 -7.92788
LeftHand  -0.0319777 5.62667 -0.0913784
RightShoulder  -0.315465 -4.46082 25.8201
RightArm  14.6162 -2.00534 54.5284
RightForeArm  15.5283 10.7681 7.00592
RightHand  -0.0647422 1.80568 -1.19581
LeftUpLeg  -3.20402 4.60281 -10.1198
LeftLeg  13.5455 15.1204 0.448894
LeftFoot  -2.41189 -0.694751 9.06909
LeftToes  -4.03379e-008 1.61488e-010 -5.81581e-011
864
root  -14.2789 38.8562 -22.4382 -163.802 -74.0777 152.057
RightUpLeg  1.3269 -3.53262 -15.4713
RightLeg  57.7229 2.75392 4.27967
RightFoot  6.54102 -1.79009 11.599
RightToes  -2.21189e-009 0 -3.6325e-017
Spine  7.86546 0.653091 -4.9161
Spine1  9.54585 1.72589 -9.84449
HEad  -17.3104 1.43286 -10.9298
LeftShoulder1  -0.146485 3.89549 -31.2832
LeftArm  -4.47215 4.4047 -40.227
LeftForeArm  24.8228 -7.70727 -8.31944
LeftHand  -0.0291213 5.11317 0.827023
RightShoulder  -0.323617 -4.47897 26.048
RightArm  14.8693 -0.703761 54.0408
RightForeArm  15.0435 11.2151 6.88744
RightHand  -0.0351303 1.41432 -0.728715
LeftUpLeg  -1.92089 5.05924 -10.6481
LeftLeg  15.1901 14.5234 0.773667
LeftFoot  -4.30886 -0.531702 9.04722
LeftToes  -4.03379e-008 1.61488e-010 -5.81581e-011
865
root  -14.96 38.8736 -22.4913 -164.523 -74.5949 152.23
RightUpLeg  -2.41739 -1.95434 -14.7292
RightLeg  61.0612 2.9664 5.29386
RightFoot  5.23048 -1.36901 9.6379
RightToes  -2.21189e-009 0 -3.6325e-017
Spine  7.91967 0.534565 -5.11532
Spine1  10.398 1.50653 -9.56848
HEad  -16.0053 1.62322 -11.3645
LeftShoulder1  -0.123879 3.8355 -31.2382
LeftArm  -4.47154 1.24487 -41.2949
LeftForeArm  25.9741 -7.22597 -8.46815
LeftHand  -0.0308578 4.92602 1.59637
RightShoulder  -0.353899 -4.56837 26.1832
RightArm  14.2785 0.380248 53.5056
RightForeArm  14.29 11.6977 6.55648
RightHand  -0.077432 1.95605 -1.40241
LeftUpLeg  -0.396157 5.31917 -10.5868
LeftLeg  15.7784 13.9244 1.03201
LeftFoot  -5.76262 -0.392417 8.75511
LeftToes  -4.03379e-008 1.61488e-010 -5.81581e-011
866
root  -15.6167 38.9069 -22.5475 -165.205 -75.4045 152.673
RightUpLeg  -6.00346 -0.713547 -13.6831
RightLeg  61.8086 2.47645 4.50405
RightFoot  4.29626 -1.23237 9.17448
RightToes  -2.21189e-009 0 -3.6325e-017
Spine  8.18284 0.287053 -5.38698
Spine1  10.5171 1.08289 -9.07026
HEad  -15.2678 1.27531 -11.1981
LeftShoulder1  -0.0880829 3.74168 -30.8159
LeftArm  -4.32324 -1.33612 -42.682
LeftForeArm  26.2383 -7.07781 -8.55906
LeftHand  -0.0266907 5.25997 1.75647
RightShoulder  -0.36439 -4.60434 26.064
RightArm  13.8821 0.816417 52.9387
RightForeArm  12.4187 12.6746 6.14961
RightHand  -0.0876595 2.47446 -1.49799
LeftUpLeg  0.908938 5.67018 -10.305
LeftLeg  16.104 12.9931 1.10036
LeftFoot  -6.95593 -0.291467 8.69196
LeftToes  -4.03379e-008 1.61488e-010 -5.81581e-011
867
root  -16.2656 38.9581 -22.617 -165.513 -76.5502 153.209
RightUpLeg  -9.39838 -0.00794558 -12.5551
RightLeg  60.0823 1.67243 2.6827
RightFoot  2.75091 -1.09754 9.01088
RightToes  -2.21189e-009 0 -3.6325e-017
Spine  8.34725 -0.120615 -5.95768
Spine1  10.2322 0.33523 -7.92646
HEad  -15.0708 1.66207 -10.0844
LeftShoulder1  -0.00538428 3.51877 -30.4623
LeftArm  -4.11239 -2.85642 -44.0884
LeftForeArm  26.3634 -7.86142 -8.44739
LeftHand  -0.0299048 5.04483 0.891184
RightShoulder  -0.306235 -4.44013 25.5372
RightArm  13.9296 0.939323 52.3952
RightForeArm  10.273 13.8632 5.8092
RightHand  -0.129552 2.12703 -2.18272
LeftUpLeg  1.81124 5.90781 -9.86079
LeftLeg  16.278 11.7344 1.06481
LeftFoot  -7.96577 -0.208168 8.68033
LeftToes  -4.03379e-008 1.61488e-010 -5.81581e-011
868
root  -16.9362 39.0404 -22.6571 -166.509 -77.7975 154.277
RightUpLeg  -11.7929 0.370794 -11.4063
RightLeg  55.7695 0.825841 0.913597
RightFoot  1.48647 -0.964005 8.65502
RightToes  -2.21189e-009 0 -3.6325e-017
Spine  8.89185 -0.620394 -6.24594
Spine1  9.6595 -0.494435 -6.56989
HEad  -15.7906 1.73656 -9.82091
LeftShoulder1  -0.0195006 3.55642 -30.5257
LeftArm  -2.97808 -4.38615 -45.1396
LeftForeArm  25.7826 -8.99996 -8.50543
LeftHand  -0.032811 4.7274 1.50937
RightShoulder  -0.285792 -4.37932 25.4066
RightArm  14.0117 1.16589 51.4343
RightForeArm  8.72922 14.9312 5.49826
RightHand  -0.1454 2.1755 -2.41362
LeftUpLeg  3.25541 6.04085 -9.32959
LeftLeg  15.7819 10.4049 0.985416
LeftFoot  -8.78904 -0.140705 8.6719
LeftToes  -4.03379e-008 1.61488e-010 -5.81581e-011
869
root  -17.6111 39.1038 -22.7157 -166.599 -78.8754 154.651
RightUpLeg  -13.5847 0.2634 -10.5987
RightLeg  49.2635 0.133174 -0.183508
RightFoot  0.164615 -0.880059 8.7287
RightToes  -2.21189e-009 0 -3.6325e-017
Spine  8.82861 -0.992965 -6.23377
Spine1  9.69079 -0.907225 -5.86891
HEad  -16.8572 0.95427 -8.80947
LeftShoulder1  0.0596231 3.33931 -30.0483
LeftArm  -0.525286 -5.83838 -46.3517
LeftForeArm  23.4282 -10.7433 -8.57492
LeftHand  -0.0316177 4.89432 1.36931
RightShoulder  -0.309682 -4.45102 25.5284
RightArm  13.7687 1.47963 50.5996
RightForeArm  7.75667 15.5057 5.30258
RightHand  -0.182989 2.46111 -2.90925
LeftUpLeg  4.42849 6.22042 -8.87269
LeftLeg  15.3049 9.26222 0.776035
LeftFoot  -9.68187 -0.0659377 8.57807
LeftToes  -4.03379e-008 1.61488e-010 -5.81581e-011
870
root  -18.2991 39.12 -22.7695 -165.219 -80.0743 153.546
RightUpLeg  -14.627 -0.693485 -10.2017
RightLeg  41.2985 0.113721 -0.169107
RightFoot  -0.501751 -0.840022 8.80266
RightToes  -2.21189e-009 0 -3.6325e-017
Spine  9.02474 -1.40354 -6.61787
Spine1  9.34366 -1.50644 -4.88531
HEad  -17.8248 0.356276 -8.49514
LeftShoulder1  0.0655892 3.322 -30.0175
LeftArm  2.04255 -7.30567 -47.2007
LeftForeArm  21.0991 -11.8974 -8.63673
LeftHand  -0.0356876 4.64881 1.91056
RightShoulder  -0.277458 -4.35566 25.3135
RightArm  13.5629 1.43182 50.0258
RightForeArm  7.43521 15.6406 5.23703
RightHand  -0.19292 2.56135 -3.02379
LeftUpLeg  5.47611 6.30586 -8.63935
LeftLeg  15.0805 7.98013 0.624748
LeftFoot  -10.661 0.0130933 8.55334
LeftToes  -4.03379e-008 1.61488e-010 -5.81581e-011
